<svg version="1" xmlns="http://www.w3.org/2000/svg" width="328" height="328" viewBox="0 0 246.000000 246.000000"><path d="M99.4 27.2l-1.9 2.3 2.3-1.9c1.2-1.1 2.2-2.1 2.2-2.3 0-.8-.8-.2-2.6 1.9zM107 25.9c0 .6.4 1.3 1 1.6.6.3.7-.1.4-.9-.7-1.8-1.4-2.1-1.4-.7zM130.9 27.7c-1.3 1.6-1.2 1.7.4.4.9-.7 1.7-1.5 1.7-1.7 0-.8-.8-.3-2.1 1.3zM95.9 27.2c-.5 1.8-.6 3.8-.1 3.4.7-.8 1.2-3.6.6-3.6-.2 0-.4.1-.5.2zM141.3 28.7c0 .9.4 1 1.4.2.7-.6 1.3-1.2 1.3-1.4 0-.1-.6-.2-1.3-.2-.8 0-1.4.6-1.4 1.4zM154.5 28c-.3.6.1.7.9.4 1.8-.7 2.1-1.4.7-1.4-.6 0-1.3.4-1.6 1zM79 28.4c0 .2.8 1 1.8 1.7 1.5 1.3 1.6 1.2.3-.4S79 27.6 79 28.4zM91 28.4c0 .2.8 1 1.8 1.7 1.5 1.3 1.6 1.2.3-.4S91 27.6 91 28.4zM100.5 30c-.3.6.1.7.9.4 1.8-.7 2.1-1.4.7-1.4-.6 0-1.3.4-1.6 1zM111 29.4c0 .2.7.7 1.6 1 .8.3 1.2.2.9-.4-.6-1-2.5-1.4-2.5-.6zM117 29.4c0 .2.7.7 1.6 1 .8.3 1.2.2.9-.4-.6-1-2.5-1.4-2.5-.6zM123 29.4c0 .2.7.7 1.6 1 .8.3 1.2.2.9-.4-.6-1-2.5-1.4-2.5-.6z"/><path d="M132 30.5c-1.1 1.3-1.5 1.3-2.1.3-.6-.9-.9-.9-.9-.1s-4.4 1.1-15.5 1c-10.7 0-15.2-.4-14.8-1.1.4-.6 0-.6-.8.1-1.7 1.4-11.6 1.3-13.8-.1-.9-.6-1.2-.5-.8.1.4.6 0 1.3-.8 1.7-.8.3-1.7.1-2-.4-.3-.4-1.9-.2-3.6.7-1.6.8-3.9 1.3-5.1 1-1.1-.3-1.7-.3-1.4 0 .6.6-6.6 4.3-9.1 4.7-.7.1-2.4 1.2-3.8 2.4S55 42.7 55 42.5c0-.3-1.3.8-3 2.5-3 3.1-4.7 3.9-3.4 1.7.4-.7.3-.9-.2-.4-.9.8-1 1.2-1.3 3.8 0 .6-.8.8-1.7.5-.8-.3-1.2-.2-.9.4.4.6 0 1.7-.8 2.5-.9.8-1.7 1.9-1.9 2.5-.2.6-1.1 1.2-2 1.4-1 .1-2.1.6-2.5 1-.4.4-.3.6.4.4.6-.2 1.1.1 1.2.7.1 1.6-2.3 6.5-3.2 6.5-.5 0-.6.4-.3.9s-.1 2.2-.9 3.7c-.8 1.6-1.5 4.2-1.5 5.7 0 2-.4 2.6-1.2 2.1-1-.6-1-.5-.1.8.7.8 1.1 1.7.8 2-.3.3-.6 4.3-.7 8.9-.1 4.6-.6 9-1.2 9.8-.8 1.1-.8 1.3 0 .8.8-.4 1.1 1.2 1.2 5.3 0 4.3-.3 5.8-1.1 5.3-.9-.5-.9-.3-.1.8.5.8 1.1 2.9 1.3 4.8.2 2.6 0 3.1-1.1 2.5-1-.6-1.1-.5-.2.7 1.4 1.6 1.3 11.7 0 13.8-.6 1-.6 1.2.2.7s1.2.1 1.2 1.4c0 1.3-.4 1.9-1.2 1.4-.7-.5-.8-.3-.2.7 1.4 2.2 1.5 20.1.1 21.8-.9 1.2-.9 1.3.1.7.8-.5 1.2-.1 1.3 1.1 0 1 .2 2.7.4 3.8.3 1.1.6 3.3.8 5 .3 1.6.9 4.3 1.6 5.8.6 1.6.8 3.4.4 4-.3.7-.2.9.2.4 1.1-.9 5.7 7.2 4.8 8.6-.3.5-.1.7.5.3.6-.3 2.3 1.1 3.8 3.1 1.5 2.1 4.9 5.7 7.6 8 4.7 3.9 15.9 10.1 19.6 10.8.9.2 1.7.4 1.7.5 0 .1 1.7.3 3.9.6 2.1.2 4.6.9 5.4 1.6 1.2 1 1.4 1 .8 0-.7-1.2.5-1.7 1.6-.6.9.9 13.8 1 13.8.1 0-.4.8-.3 1.9.2 1 .6 2.1.8 2.4.5.4-.4 44.1-.6 51.2-.2.6 0 3.7-.3 7-.7 3.3-.4 6.7-.8 7.5-.9 5.7-.6 19.8-7.6 24.3-12 .8-.8 1.7-1.3 2-1 .3.3.8-.4 1.2-1.6.4-1.3 1.2-1.9 2.1-1.6.8.3 1.2.2.9-.4-.3-.5 1.3-3.3 3.5-6.2 2.2-2.9 4-5.7 4-6.1 0-.5.5-.5 1.2-.1.6.4.8.3.4-.4-.3-.6-.1-2.3.6-3.9.6-1.5 1.1-3.1 1-3.6-.1-.4.2-.7.7-.7.6 0 .8-.9.6-2-.2-1.1.1-2 .6-2 .6 0 .8-.4.4-.9-.3-.5-.1-1.2.3-1.5.5-.3.7-1.8.4-3.2-.4-2.1-.2-2.5.9-1.9 1.1.6 1.1.5.2-.5-.8-.9-.9-1.9-.2-3.2.5-1 .6-1.8.2-1.8-1 0-.9-12.3.1-13.9.4-.6.2-1.1-.3-1.1-.6 0-1.1-.5-1.1-1.1 0-.5.4-.7 1-.4.6.4.7-.2.1-1.8s-.6-2.8.2-3.6c.8-.8.8-1.1-.1-1.1-.7 0-1.2-.5-1.2-1.1 0-.5.4-.7 1-.4.5.3.7 0 .4-.9-1-2.5-1.1-9-.3-11.4.5-1.3.5-2.2-.1-2.2s-1-.5-1-1.1c0-.5.4-.7 1-.4.6.3.7-.1.4-1-1-2.5-1.1-8.7-.2-11.3.4-1.3.4-2.2-.2-2.2-.6 0-1-.5-1-1.1 0-.5.4-.7 1-.4.6.4.7-.2.1-1.8s-.6-2.8.2-3.6c.8-.8.8-1.1-.1-1.1-.6 0-.9-.6-.6-1.4.3-.8 1.3-1.3 2.2-1 .9.3.7-.1-.5-.7-1.3-.7-2.3-1.6-2.3-2.1s.6-.6 1.3-.2c.8.5.8.2-.2-.9-1-1.3-1-1.7-.1-1.7.8 0 .9-.4.3-1.3-.5-.6-1-2.6-1.1-4.2-.3-4.5-.7-6.4-1.5-7.1-.4-.4-.7-1.6-.7-2.6 0-1.1-.7-3.3-1.6-5-.9-1.6-1.1-2.7-.6-2.4.6.4 1.4.1 1.8-.5.4-.7.3-.9-.2-.6-.6.3-1.5.3-2.1-.1-1.6-1.1-4.4-7.1-3.8-8.2.3-.6-.1-.7-.9-.4-1.4.6-2.1-.5-1.7-2.9 0-.4-.5-.6-1.1-.5-.7.2-1.2-.3-1-1 .1-.6-.2-1.1-.7-1-.5.2-2.2-1.1-3.8-2.8-1.7-1.7-3.7-3.4-4.6-3.7-1.1-.4-1.5-1.3-1.1-2.4.5-1.4.4-1.5-.4-.4-1.1 1.6-3.6.5-2.6-1.1.4-.7.2-.8-.4-.4-.7.4-3.3-.3-5.9-1.5-2.7-1.2-5.1-2.1-5.5-2.1-.5.1-.8-.2-.8-.7 0-.5-1-.7-2.2-.3-1.1.3-1.9.1-1.6-.4.6-.9-3.7-1.4-11-1.3-1.9 0-3.1-.4-2.9-.8.3-.5-.3-.9-1.3-.9s-1.6.4-1.4.8c.3.4-.4.8-1.6.8-1.3 0-1.9-.4-1.4-1.2.5-.7.3-.8-.7-.2-.8.5-2.5 1-3.8 1.2-2.2.3-2.3.2-1-1.5 1.3-1.7 1.3-1.7-.5-.3-2.4 1.9-7.1 2.6-6 .9.5-.8.3-.9-.7-.3-.8.5-2.5 1-3.8 1.2-2.1.3-2.3.1-1.1-1.2.7-.9 1-1.6.7-1.6-.2 0-1 .7-1.7 1.5zM173 30.1c0 .5.5.7 1 .4.6-.3 1-.8 1-1.1 0-.2-.4-.4-1-.4-.5 0-1 .5-1 1.1z"/><path d="M182.5 36c-.3.6.1.7.9.4 1.8-.7 2.1-1.4.7-1.4-.6 0-1.3.4-1.6 1zM199 46c0 .5.5 1 1.1 1 .5 0 .7-.5.4-1-.3-.6-.8-1-1.1-1-.2 0-.4.4-.4 1zM212 56c-.9.6-1 1-.3 1 .6 0 1.5-.5 1.8-1 .8-1.2.4-1.2-1.5 0zM29.5 82c.3.5.8 1 1.1 1 .2 0 .4-.5.4-1 0-.6-.5-1-1.1-1-.5 0-.7.4-.4 1zM29.5 94c-.3.5-.1 1 .4 1 .6 0 1.1-.5 1.1-1 0-.6-.2-1-.4-1-.3 0-.8.4-1.1 1zM28 106c-.9.6-1 1-.3 1 .6 0 1.5-.5 1.8-1 .8-1.2.4-1.2-1.5 0zM217 110c0 .5.5 1 1.1 1 .5 0 .7-.5.4-1-.3-.6-.8-1-1.1-1-.2 0-.4.4-.4 1zM28 114c-.9.6-1 1-.3 1 .6 0 1.5-.5 1.8-1 .8-1.2.4-1.2-1.5 0zM27.6 121.8c-.3.5.1.9.9.9s1.2-.4.9-.9c-.3-.4-.7-.8-.9-.8-.2 0-.6.4-.9.8zM217 126c0 .5.5 1 1.1 1 .5 0 .7-.5.4-1-.3-.6-.8-1-1.1-1-.2 0-.4.4-.4 1zM27 127.9c0 .6.4 1.3 1 1.6.6.3.7-.1.4-.9-.7-1.8-1.4-2.1-1.4-.7zM217 139.9c0 .6.4 1.3 1 1.6.6.3.7-.1.4-.9-.7-1.8-1.4-2.1-1.4-.7zM27.5 142.9c-.3.5-.2 1.2.3 1.5.5.3.9-.1.9-.9 0-1.7-.3-1.9-1.2-.6zM217 145.9c0 .6.4 1.3 1 1.6.6.3.7-.1.4-.9-.7-1.8-1.4-2.1-1.4-.7zM27.6 147.8c-.3.5.1.9.9.9s1.2-.4.9-.9c-.3-.4-.7-.8-.9-.8-.2 0-.6.4-.9.8zM216.6 149.8c-.3.5.1.9.9.9s1.2-.4.9-.9c-.3-.4-.7-.8-.9-.8-.2 0-.6.4-.9.8zM29.5 154c.3.5.8 1 1.1 1 .2 0 .4-.5.4-1 0-.6-.5-1-1.1-1-.5 0-.7.4-.4 1zM217.6 157.8c-.3.5.1.9.9.9s1.2-.4.9-.9c-.3-.4-.7-.8-.9-.8-.2 0-.6.4-.9.8zM195.3 203.5c0 .8.4 1.2.9.9.5-.3.6-1 .3-1.5-.9-1.3-1.2-1.1-1.2.6zM59.3 212.5c0 .8.4 1.2.9.9.5-.3.6-1 .3-1.5-.9-1.3-1.2-1.1-1.2.6zM164.9 215.7c-1.3 1.6-1.2 1.7.4.4 1.6-1.3 2.1-2.1 1.3-2.1-.2 0-1 .8-1.7 1.7z"/></svg>