
<svg xmlns="http://www.w3.org/2000/svg" xmlns:xlink="http://www.w3.org/1999/xlink" width="69.256" height="36.349" viewBox="0 0 69.256 36.349">
  <defs>
    <linearGradient id="linear-gradient" x1="-0.053" y1="-0.111" x2="0.66" y2="0.677" gradientUnits="objectBoundingBox">
      <stop offset="0" stop-color="#0072b4"/>
      <stop offset="0.14" stop-color="#0374b5"/>
      <stop offset="0.269" stop-color="#0e7bba"/>
      <stop offset="0.394" stop-color="#2187c1"/>
      <stop offset="0.516" stop-color="#3b97cc"/>
      <stop offset="0.635" stop-color="#5dacda"/>
      <stop offset="0.734" stop-color="#7fc2e8"/>
    </linearGradient>
    <linearGradient id="linear-gradient-2" x1="-1.311" y1="1.096" x2="2.166" y2="-0.048" gradientUnits="objectBoundingBox">
      <stop offset="0.012" stop-color="#0072b4"/>
      <stop offset="0.152" stop-color="#0374b5"/>
      <stop offset="0.28" stop-color="#0e7bba"/>
      <stop offset="0.404" stop-color="#2187c1"/>
      <stop offset="0.526" stop-color="#3b97cc"/>
      <stop offset="0.644" stop-color="#5dacda"/>
      <stop offset="0.742" stop-color="#7fc2e8"/>
    </linearGradient>
  </defs>
  <g id="Group_30" data-name="Group 30" transform="translate(-79.829 -312.254)">
    <path id="Path_1" data-name="Path 1" d="M82.006,333.06h4.665v17.417c0,4.665-2.246,6.808-5.08,6.808a4.167,4.167,0,0,1-1.762-.38v-3.94a1.363,1.363,0,0,0,.691.173c1,0,1.486-.829,1.486-2.385Zm2.35-7.326a2.678,2.678,0,1,1-2.7,2.661A2.685,2.685,0,0,1,84.356,325.734Z" transform="translate(0 -8.681)" fill="#0072b4"/>
    <path id="Path_2" data-name="Path 2" d="M108.225,347.583H123.05v17.279h-4.665V363.2a6.725,6.725,0,0,1-5.149,2.039c-3.974,0-6.324-2.35-6.324-5.287a4.8,4.8,0,0,1,2.453-4.285,9.138,9.138,0,0,1,4.389-.967,14.483,14.483,0,0,1,4.631.76V351.8h-10.16Zm3.559,12.06c0,1.175,1.313,1.555,2.453,1.555a4.52,4.52,0,0,0,4.147-2.592v-.035a12.143,12.143,0,0,0-3.594-.587C113.1,357.985,111.785,358.434,111.785,359.643Z" transform="translate(-17.442 -22.752)" fill="#0072b4"/>
    <g id="Group_1" data-name="Group 1" transform="translate(125.656 324.831)">
      <path id="Path_3" data-name="Path 3" d="M208.563,364.862V347.583h4.665v17.279Z" transform="translate(-208.563 -347.583)" fill="#0072b4"/>
      <path id="Path_4" data-name="Path 4" d="M235.1,360.646H243.4v4.216H226.811l8.6-13.063h-7.741v-4.216h16.069Z" transform="translate(-220.315 -347.583)" fill="#0072b4"/>
    </g>
    <path id="Path_5" data-name="Path 5" d="M122.108,328.225h0a2.385,2.385,0,0,1-3.374,0l-2.906-2.955a2.386,2.386,0,0,1,0-3.374h0a2.386,2.386,0,0,1,3.374,0l2.906,2.955A2.385,2.385,0,0,1,122.108,328.225Z" transform="translate(-22.734 -5.759)" fill="url(#linear-gradient)"/>
    <rect id="Rectangle_1" data-name="Rectangle 1" width="4.772" height="12.034" rx="2.386" transform="translate(102.739 312.254) rotate(45)" fill="url(#linear-gradient-2)"/>
    <g id="Group_2" data-name="Group 2" transform="translate(112.188 318.159)">
      <path id="Path_6" data-name="Path 6" d="M188.686,328.841v4.043H179.68a1.585,1.585,0,0,0-1.382.691,3.263,3.263,0,0,0-.484,1.9V353.03h-4.6v-10.47H170.73v-3.835h2.488v-3.456a6.28,6.28,0,0,1,.5-2.488,6.442,6.442,0,0,1,3.438-3.438,6.365,6.365,0,0,1,2.522-.5Z" transform="translate(-170.73 -328.841)" fill="#0072b4"/>
    </g>
    <rect id="Rectangle_2" data-name="Rectangle 2" width="8.046" height="3.833" transform="translate(115.124 328.044)" fill="#0072b4"/>
  </g>
</svg>
